<mxfile host="app.diagrams.net" modified="2023-09-25T18:43:15.443Z" agent="Mozilla/5.0 (X11; Linux x86_64) AppleWebKit/537.36 (KHTML, like Gecko) Chrome/117.0.0.0 Safari/537.36" etag="CQVrREZWeefTFjXU9W9q" version="21.8.2" type="device">
  <diagram name="Page-1" id="rNtIzy7LDej5-5r_5FIC">
    <mxGraphModel dx="2072" dy="1168" grid="1" gridSize="10" guides="1" tooltips="1" connect="1" arrows="1" fold="1" page="1" pageScale="1" pageWidth="850" pageHeight="1100" math="0" shadow="0">
      <root>
        <mxCell id="0" />
        <mxCell id="1" parent="0" />
        <mxCell id="JcX84dX9nqtKXv1K7HFH-10" value="Domain" style="rounded=1;whiteSpace=wrap;html=1;verticalAlign=top;" vertex="1" parent="1">
          <mxGeometry x="150" y="240" width="490" height="130" as="geometry" />
        </mxCell>
        <mxCell id="JcX84dX9nqtKXv1K7HFH-1" value="Discounter" style="rounded=0;whiteSpace=wrap;html=1;" vertex="1" parent="1">
          <mxGeometry x="180" y="280" width="120" height="60" as="geometry" />
        </mxCell>
        <mxCell id="JcX84dX9nqtKXv1K7HFH-2" value="DiscounterImpl" style="rounded=0;whiteSpace=wrap;html=1;" vertex="1" parent="1">
          <mxGeometry x="340" y="280" width="120" height="60" as="geometry" />
        </mxCell>
        <mxCell id="JcX84dX9nqtKXv1K7HFH-3" value="Repository" style="rounded=0;whiteSpace=wrap;html=1;" vertex="1" parent="1">
          <mxGeometry x="490" y="280" width="120" height="60" as="geometry" />
        </mxCell>
        <mxCell id="JcX84dX9nqtKXv1K7HFH-4" value="MockRateRepository" style="rounded=0;whiteSpace=wrap;html=1;" vertex="1" parent="1">
          <mxGeometry x="680" y="280" width="170" height="60" as="geometry" />
        </mxCell>
        <mxCell id="JcX84dX9nqtKXv1K7HFH-5" value="UI" style="rounded=0;whiteSpace=wrap;html=1;" vertex="1" parent="1">
          <mxGeometry y="280" width="120" height="60" as="geometry" />
        </mxCell>
        <mxCell id="JcX84dX9nqtKXv1K7HFH-7" value="DB" style="shape=cylinder3;whiteSpace=wrap;html=1;boundedLbl=1;backgroundOutline=1;size=15;" vertex="1" parent="1">
          <mxGeometry x="900" y="270" width="60" height="80" as="geometry" />
        </mxCell>
        <mxCell id="JcX84dX9nqtKXv1K7HFH-8" value="CLI" style="whiteSpace=wrap;html=1;aspect=fixed;" vertex="1" parent="1">
          <mxGeometry x="-120" y="270" width="80" height="80" as="geometry" />
        </mxCell>
        <mxCell id="JcX84dX9nqtKXv1K7HFH-11" value="" style="endArrow=classic;html=1;rounded=0;exitX=1;exitY=0.5;exitDx=0;exitDy=0;entryX=0;entryY=0.5;entryDx=0;entryDy=0;" edge="1" parent="1" source="JcX84dX9nqtKXv1K7HFH-5" target="JcX84dX9nqtKXv1K7HFH-1">
          <mxGeometry width="50" height="50" relative="1" as="geometry">
            <mxPoint x="350" y="450" as="sourcePoint" />
            <mxPoint x="400" y="400" as="targetPoint" />
          </mxGeometry>
        </mxCell>
        <mxCell id="JcX84dX9nqtKXv1K7HFH-13" value="" style="endArrow=classic;html=1;rounded=0;exitX=1;exitY=0.5;exitDx=0;exitDy=0;entryX=0;entryY=0.5;entryDx=0;entryDy=0;" edge="1" parent="1" source="JcX84dX9nqtKXv1K7HFH-8" target="JcX84dX9nqtKXv1K7HFH-5">
          <mxGeometry width="50" height="50" relative="1" as="geometry">
            <mxPoint x="350" y="450" as="sourcePoint" />
            <mxPoint x="400" y="400" as="targetPoint" />
          </mxGeometry>
        </mxCell>
        <mxCell id="JcX84dX9nqtKXv1K7HFH-17" value="" style="endArrow=classic;html=1;rounded=0;exitX=0;exitY=0.5;exitDx=0;exitDy=0;entryX=1;entryY=0.5;entryDx=0;entryDy=0;" edge="1" parent="1" source="JcX84dX9nqtKXv1K7HFH-4" target="JcX84dX9nqtKXv1K7HFH-3">
          <mxGeometry width="50" height="50" relative="1" as="geometry">
            <mxPoint x="350" y="450" as="sourcePoint" />
            <mxPoint x="400" y="400" as="targetPoint" />
          </mxGeometry>
        </mxCell>
        <mxCell id="JcX84dX9nqtKXv1K7HFH-18" value="" style="endArrow=classic;html=1;rounded=0;exitX=1;exitY=0.5;exitDx=0;exitDy=0;entryX=0;entryY=0.5;entryDx=0;entryDy=0;entryPerimeter=0;" edge="1" parent="1" source="JcX84dX9nqtKXv1K7HFH-4" target="JcX84dX9nqtKXv1K7HFH-7">
          <mxGeometry width="50" height="50" relative="1" as="geometry">
            <mxPoint x="350" y="450" as="sourcePoint" />
            <mxPoint x="920" y="410" as="targetPoint" />
          </mxGeometry>
        </mxCell>
        <mxCell id="JcX84dX9nqtKXv1K7HFH-19" value="" style="endArrow=classic;html=1;rounded=0;exitX=0;exitY=0.5;exitDx=0;exitDy=0;entryX=1;entryY=0.5;entryDx=0;entryDy=0;" edge="1" parent="1" source="JcX84dX9nqtKXv1K7HFH-3" target="JcX84dX9nqtKXv1K7HFH-2">
          <mxGeometry width="50" height="50" relative="1" as="geometry">
            <mxPoint x="350" y="450" as="sourcePoint" />
            <mxPoint x="400" y="400" as="targetPoint" />
          </mxGeometry>
        </mxCell>
        <mxCell id="JcX84dX9nqtKXv1K7HFH-20" value="" style="endArrow=classic;html=1;rounded=0;exitX=1;exitY=0.5;exitDx=0;exitDy=0;entryX=0;entryY=0.5;entryDx=0;entryDy=0;" edge="1" parent="1" source="JcX84dX9nqtKXv1K7HFH-1" target="JcX84dX9nqtKXv1K7HFH-2">
          <mxGeometry width="50" height="50" relative="1" as="geometry">
            <mxPoint x="350" y="450" as="sourcePoint" />
            <mxPoint x="400" y="400" as="targetPoint" />
          </mxGeometry>
        </mxCell>
        <mxCell id="JcX84dX9nqtKXv1K7HFH-21" value="" style="endArrow=none;html=1;rounded=0;entryX=0.5;entryY=1;entryDx=0;entryDy=0;exitX=0.5;exitY=0;exitDx=0;exitDy=0;" edge="1" parent="1" source="JcX84dX9nqtKXv1K7HFH-22" target="JcX84dX9nqtKXv1K7HFH-1">
          <mxGeometry width="50" height="50" relative="1" as="geometry">
            <mxPoint x="240" y="430" as="sourcePoint" />
            <mxPoint x="400" y="400" as="targetPoint" />
          </mxGeometry>
        </mxCell>
        <mxCell id="JcX84dX9nqtKXv1K7HFH-22" value="Port" style="text;html=1;strokeColor=none;fillColor=none;align=center;verticalAlign=middle;whiteSpace=wrap;rounded=0;" vertex="1" parent="1">
          <mxGeometry x="210" y="400" width="60" height="30" as="geometry" />
        </mxCell>
        <mxCell id="JcX84dX9nqtKXv1K7HFH-23" value="Application" style="text;html=1;strokeColor=none;fillColor=none;align=center;verticalAlign=middle;whiteSpace=wrap;rounded=0;" vertex="1" parent="1">
          <mxGeometry x="370" y="400" width="60" height="30" as="geometry" />
        </mxCell>
        <mxCell id="JcX84dX9nqtKXv1K7HFH-24" value="Port" style="text;html=1;strokeColor=none;fillColor=none;align=center;verticalAlign=middle;whiteSpace=wrap;rounded=0;" vertex="1" parent="1">
          <mxGeometry x="520" y="400" width="60" height="30" as="geometry" />
        </mxCell>
        <mxCell id="JcX84dX9nqtKXv1K7HFH-25" value="Adapter" style="text;html=1;strokeColor=none;fillColor=none;align=center;verticalAlign=middle;whiteSpace=wrap;rounded=0;" vertex="1" parent="1">
          <mxGeometry x="735" y="400" width="60" height="30" as="geometry" />
        </mxCell>
        <mxCell id="JcX84dX9nqtKXv1K7HFH-26" value="Adapter" style="text;html=1;strokeColor=none;fillColor=none;align=center;verticalAlign=middle;whiteSpace=wrap;rounded=0;" vertex="1" parent="1">
          <mxGeometry x="30" y="400" width="60" height="30" as="geometry" />
        </mxCell>
        <mxCell id="JcX84dX9nqtKXv1K7HFH-27" value="Actor" style="text;html=1;strokeColor=none;fillColor=none;align=center;verticalAlign=middle;whiteSpace=wrap;rounded=0;" vertex="1" parent="1">
          <mxGeometry x="-110" y="400" width="60" height="30" as="geometry" />
        </mxCell>
        <mxCell id="JcX84dX9nqtKXv1K7HFH-28" value="Actor" style="text;html=1;strokeColor=none;fillColor=none;align=center;verticalAlign=middle;whiteSpace=wrap;rounded=0;" vertex="1" parent="1">
          <mxGeometry x="900" y="400" width="60" height="30" as="geometry" />
        </mxCell>
        <mxCell id="JcX84dX9nqtKXv1K7HFH-29" value="" style="endArrow=none;html=1;rounded=0;exitX=0.5;exitY=0;exitDx=0;exitDy=0;entryX=0.5;entryY=1;entryDx=0;entryDy=0;entryPerimeter=0;" edge="1" parent="1" source="JcX84dX9nqtKXv1K7HFH-28" target="JcX84dX9nqtKXv1K7HFH-7">
          <mxGeometry width="50" height="50" relative="1" as="geometry">
            <mxPoint x="590" y="460" as="sourcePoint" />
            <mxPoint x="640" y="410" as="targetPoint" />
          </mxGeometry>
        </mxCell>
        <mxCell id="JcX84dX9nqtKXv1K7HFH-30" value="" style="endArrow=none;html=1;rounded=0;entryX=0.5;entryY=1;entryDx=0;entryDy=0;exitX=0.5;exitY=0;exitDx=0;exitDy=0;" edge="1" parent="1" source="JcX84dX9nqtKXv1K7HFH-25" target="JcX84dX9nqtKXv1K7HFH-4">
          <mxGeometry width="50" height="50" relative="1" as="geometry">
            <mxPoint x="590" y="460" as="sourcePoint" />
            <mxPoint x="640" y="410" as="targetPoint" />
          </mxGeometry>
        </mxCell>
        <mxCell id="JcX84dX9nqtKXv1K7HFH-31" value="" style="endArrow=none;html=1;rounded=0;entryX=0.5;entryY=1;entryDx=0;entryDy=0;exitX=0.5;exitY=0;exitDx=0;exitDy=0;" edge="1" parent="1" source="JcX84dX9nqtKXv1K7HFH-24" target="JcX84dX9nqtKXv1K7HFH-3">
          <mxGeometry width="50" height="50" relative="1" as="geometry">
            <mxPoint x="590" y="460" as="sourcePoint" />
            <mxPoint x="640" y="410" as="targetPoint" />
          </mxGeometry>
        </mxCell>
        <mxCell id="JcX84dX9nqtKXv1K7HFH-33" value="" style="endArrow=none;html=1;rounded=0;entryX=0.5;entryY=1;entryDx=0;entryDy=0;exitX=0.5;exitY=0;exitDx=0;exitDy=0;" edge="1" parent="1" source="JcX84dX9nqtKXv1K7HFH-23" target="JcX84dX9nqtKXv1K7HFH-2">
          <mxGeometry width="50" height="50" relative="1" as="geometry">
            <mxPoint x="280" y="460" as="sourcePoint" />
            <mxPoint x="330" y="410" as="targetPoint" />
          </mxGeometry>
        </mxCell>
        <mxCell id="JcX84dX9nqtKXv1K7HFH-34" value="" style="endArrow=none;html=1;rounded=0;entryX=0.5;entryY=1;entryDx=0;entryDy=0;exitX=0.5;exitY=0;exitDx=0;exitDy=0;" edge="1" parent="1" source="JcX84dX9nqtKXv1K7HFH-26" target="JcX84dX9nqtKXv1K7HFH-5">
          <mxGeometry width="50" height="50" relative="1" as="geometry">
            <mxPoint x="280" y="460" as="sourcePoint" />
            <mxPoint x="330" y="410" as="targetPoint" />
          </mxGeometry>
        </mxCell>
        <mxCell id="JcX84dX9nqtKXv1K7HFH-35" value="" style="endArrow=none;html=1;rounded=0;entryX=0.5;entryY=1;entryDx=0;entryDy=0;exitX=0.5;exitY=0;exitDx=0;exitDy=0;" edge="1" parent="1" source="JcX84dX9nqtKXv1K7HFH-27" target="JcX84dX9nqtKXv1K7HFH-8">
          <mxGeometry width="50" height="50" relative="1" as="geometry">
            <mxPoint x="-30" y="460" as="sourcePoint" />
            <mxPoint x="20" y="410" as="targetPoint" />
          </mxGeometry>
        </mxCell>
      </root>
    </mxGraphModel>
  </diagram>
</mxfile>
